<svg xmlns="http://www.w3.org/2000/svg" xml:space="preserve" id="Layer_1" x="0" y="0" style="enable-background:new 0 0 1859.9 290.5" version="1.1" viewBox="0 0 1859.9 290.5"><style>.st1{fill:#fff}</style><path d="M98.4 214.8h6.3c18.5-.1 37.1.9 55.5-.6 27.2-2.2 46.8-17 57.4-42 10.6-25 7.1-49.1-9.8-70.5-13.9-17.5-32.5-25.9-54.9-26.1-10.8-.1-21.6 0-32.8 0v89.2H98.2V54.1c.4-.3.7-.6 1-.6 21.3.2 42.7-.5 63.9.8 42.5 2.6 79.3 40.6 81.8 83.2 3 49.5-28.4 89.9-77 98-12.9 2.1-26.2 1.1-39.4 1.5-2.6.1-5.3 0-8.5 0 0 9.2-.1 18 .2 26.8 0 .9 2.4 2.3 3.9 2.5 38.7 6.3 73.1-3.3 102.5-29.2 53.3-47 56-129.5 5.2-178.9-35.3-34.4-77.9-45.1-124.9-29.7-46.4 15.2-74.7 48.4-83.1 96.6-7.2 41.2 5.3 76.9 34.1 107.1 1 1 2.1 1.9 4.1 3.6V89.5h21.9v89.2c1.8.2 3.1.4 4.3.4 21 0 42 .1 63 0 19.5-.1 33.7-12.1 35.9-30 2.4-19.7-13-37.4-32.9-37.7-6.6-.1-13.3 0-20.2 0V90.1c41.4-6.7 73.5 14.7 75.5 54.3 1.6 30.3-24.6 56.5-55.7 56.7-21.3.1-42.7 0-64 0H84v75.6c-2-.8-3.3-1.2-4.6-1.9C33.5 250.1 6.2 212.3.8 160.4-6.9 86.2 40.2 20.9 112.2 3.9 193-15.3 274.6 39.1 287.9 121.1c12.8 78.5-37.5 151.1-115.7 166.6-23.8 4.7-47.4 3.2-70.6-3.9-2.1-.6-3.9-1-3.9-4.1.2-21 .1-42 .1-63 0-.4.3-.9.6-1.9z" style="fill:#f4f4f4"/><path d="M337.7 232.6v-175h72c15.5 0 28.8 2.5 39.9 7.4 11.1 4.9 19.6 12 25.6 21.4 6 9.3 9 20.5 9 33.5 0 12.8-3 23.9-9 33.1s-14.5 16.4-25.6 21.5c-11.1 5.1-24.4 7.6-39.9 7.6h-53.8l14.2-15v65.5h-32.4zm32.5-62-14.2-16h52.2c14.3 0 25.1-3 32.4-9.1 7.2-6.1 10.9-14.6 10.9-25.6s-3.6-19.5-10.9-25.6c-7.2-6.1-18-9.1-32.4-9.1H356l14.2-16v101.4zM552.7 234.4c-10 0-18.8-1.7-26.2-5.1s-13.3-8.2-17.4-14.2c-4.1-6.1-6.1-13-6.1-20.6 0-7.5 1.8-14.2 5.4-20.2 3.6-6 9.5-10.8 17.6-14.2 8.2-3.5 19-5.2 32.5-5.2h38.8v20.8h-36.5c-10.5 0-17.6 1.7-21.4 5.1-3.8 3.4-5.6 7.7-5.6 12.9 0 5.5 2.2 9.9 6.8 13.2 4.5 3.3 10.8 5 18.8 5 7.7 0 14.5-1.8 20.6-5.2 6.1-3.5 10.5-8.7 13.4-15.5l5 18.8c-3 7.8-8.3 13.9-16 18.2-7.9 4-17.7 6.2-29.7 6.2zm42-1.8v-27.2l-1.5-5.5v-47.2c0-9.2-2.8-16.3-8.4-21.4-5.6-5.1-14-7.6-25.4-7.6-7.3 0-14.6 1.2-21.8 3.5-7.2 2.3-13.3 5.6-18.5 9.8l-12.2-22.8c7.3-5.5 15.9-9.7 25.8-12.5 9.8-2.8 20.1-4.2 30.8-4.2 19.5 0 34.5 4.7 45 14s15.8 23.7 15.8 43v78.2h-29.6zM664.4 232.6V99.1h29.8v36.8l-3.5-10.8c3.8-9 10.1-15.9 18.8-20.6 8.7-4.8 19.2-7.1 31.8-7.1v29.8c-1.2-.2-2.3-.3-3.5-.4-1.2-.1-2.2-.1-3.2-.1-12 0-21.5 3.4-28.5 10.3-7 6.8-10.5 17.2-10.5 31.2v64.5h-31.2zM768.2 232.6V47.1h31v185.5h-31zM902.9 234.4c-14.8 0-27.8-3-38.9-8.9-11.1-5.9-19.7-14-25.8-24.2-6.1-10.2-9.1-22-9.1-35.4 0-13.3 3-25.1 8.9-35.4 5.9-10.3 14.1-18.3 24.5-24.3 10.4-5.9 22.3-8.9 35.6-8.9 13 0 24.6 2.9 34.8 8.6 10.2 5.8 18.2 13.8 24 24.1 5.8 10.3 8.8 22.6 8.8 36.8 0 1.2 0 2.6-.1 4.4-.1 1.8-.2 3.3-.4 4.6H853.9V155h94.8l-12.5 6.5c.2-7.5-1.4-14.2-4.6-20.1-3.2-5.9-7.7-10.5-13.4-13.8-5.7-3.2-12.3-4.9-20-4.9-7.5 0-14.2 1.6-20.1 4.9-5.9 3.3-10.5 7.9-13.6 13.9-3.2 6-4.8 12.9-4.8 20.8v5c0 8 1.8 15.1 5.4 21.2 3.6 6.2 8.7 11 15.4 14.4 6.7 3.4 14.4 5.1 23.2 5.1 7.5 0 14.2-1.2 20.2-3.8s11.3-6.2 16-11l17 19.5c-6.2 7-13.8 12.3-22.9 16-9 3.8-19.4 5.7-31.1 5.7zM1004.4 282.9c-6.7 0-13.2-1.1-19.8-3.2-6.5-2.2-11.8-5.2-16-9l12.2-22.8c3.2 2.7 6.7 4.8 10.6 6.5 3.9 1.7 8 2.5 12.4 2.5 5.7 0 10.2-1.4 13.8-4.2 3.5-2.8 6.8-7.7 9.8-14.5l7.5-17 3-4 50.2-118h30l-62.5 144.5c-4.2 9.8-8.8 17.6-13.9 23.4-5.1 5.8-10.8 9.8-17 12.2-6.1 2.3-12.9 3.6-20.3 3.6zm27.3-45.5L971.4 99.1h32.2l49.2 115.3-21.1 23zM1140.7 232.6v-175h72c15.5 0 28.8 2.5 39.9 7.4 11.1 4.9 19.6 12 25.6 21.4 6 9.3 9 20.5 9 33.5 0 12.8-3 23.9-9 33.1s-14.5 16.4-25.6 21.5c-11.1 5.1-24.4 7.6-39.9 7.6h-53.8l14.2-15v65.5h-32.4zm32.5-62-14.2-16h52.2c14.3 0 25.1-3 32.4-9.1 7.2-6.1 10.9-14.6 10.9-25.6s-3.6-19.5-10.9-25.6c-7.2-6.1-18-9.1-32.4-9.1H1159l14.2-16v101.4zM1376.2 234.4c-13.5 0-25.6-3-36.4-8.9-10.8-5.9-19.2-14-25.4-24.4-6.2-10.3-9.2-22.1-9.2-35.2 0-13.5 3.1-25.3 9.2-35.5 6.2-10.2 14.6-18.2 25.2-24.1 10.7-5.9 22.8-8.9 36.5-8.9 13.8 0 26.1 3 36.9 8.9 10.8 5.9 19.2 14 25.2 24.1 6.1 10.2 9.1 22 9.1 35.5 0 13.3-3 25.1-9.1 35.4-6.1 10.2-14.5 18.3-25.4 24.2-10.7 5.9-23 8.9-36.6 8.9zm0-26.5c7.7 0 14.5-1.7 20.5-5.1 6-3.4 10.7-8.3 14.1-14.8 3.4-6.4 5.1-13.8 5.1-22.1 0-8.5-1.7-15.9-5.1-22.1-3.4-6.2-8.1-11.1-14.1-14.5-6-3.4-12.8-5.1-20.2-5.1s-14.2 1.7-20.2 5.1c-6 3.4-10.8 8.2-14.2 14.5s-5.2 13.6-5.2 22.1c0 8.3 1.8 15.7 5.2 22.1 3.5 6.4 8.2 11.3 14.2 14.8 5.9 3.3 12.5 5.1 19.9 5.1zM1493.2 77.1c-5.8 0-10.6-1.8-14.4-5.5-3.8-3.7-5.6-8.2-5.6-13.5 0-5 1.9-9.3 5.6-13 3.8-3.7 8.5-5.5 14.4-5.5 5.8 0 10.6 1.7 14.4 5.1 3.8 3.4 5.6 7.8 5.6 13.1s-1.8 9.9-5.5 13.6c-3.7 3.8-8.5 5.7-14.5 5.7zm-15.5 155.5V99.1h31v133.5h-31zM1625.4 97.4c10.8 0 20.4 2.1 28.6 6.2 8.2 4.2 14.8 10.6 19.8 19.2 4.9 8.7 7.4 19.8 7.4 33.3v76.5H1650v-72.5c0-11.8-2.8-20.7-8.2-26.5-5.5-5.8-13.3-8.8-23.5-8.8-7.3 0-13.8 1.5-19.5 4.5-5.7 3-10 7.5-13.1 13.4-3.1 5.9-4.6 13.4-4.6 22.4v67.5h-31V99.1h29.8v36.3l-5.2-11.3c4.5-8.5 11.2-15.1 20.1-19.8 8.7-4.6 19-6.9 30.6-6.9zM1703.2 125.1v-25h89v25h-89zm68 109.3c-14.7 0-26-3.8-34-11.4-8-7.6-12-18.7-12-33.4v-120h31v119c0 6.3 1.7 11.2 5 14.8 3.3 3.5 8 5.2 14 5.2 6.8 0 12.5-1.8 17-5.5l9 22.2c-3.8 3-8.4 5.2-13.8 6.8-5.3 1.5-10.7 2.3-16.2 2.3zM1839.7 234.4c-5.8 0-10.8-2-14.8-5.9-4-3.9-6-9-6-15.1 0-6.2 2-11.1 6-14.9s8.9-5.6 14.8-5.6c5.5 0 10.2 1.9 14.2 5.6s6 8.7 6 14.9c0 6.2-2 11.2-6 15.1-4 3.9-8.7 5.9-14.2 5.9z" class="st1"/></svg>